<svg width="42" height="38" viewBox="0 0 42 38" fill="none" xmlns="http://www.w3.org/2000/svg">
<path d="M37.6666 6.41667H32.2791L26.6395 0.777091C26.4464 0.583252 26.2168 0.429527 25.9641 0.324766C25.7113 0.220005 25.4403 0.166277 25.1666 0.166674H16.8333C16.5597 0.166277 16.2887 0.220005 16.0359 0.324766C15.7831 0.429527 15.5535 0.583252 15.3604 0.777091L9.72079 6.41667H4.33329C2.03538 6.41667 0.166626 8.28542 0.166626 10.5833V33.5C0.166626 35.7979 2.03538 37.6667 4.33329 37.6667H37.6666C39.9645 37.6667 41.8333 35.7979 41.8333 33.5V10.5833C41.8333 8.28542 39.9645 6.41667 37.6666 6.41667ZM4.33329 33.5V10.5833H10.5833C11.1375 10.5833 11.6666 10.3646 12.0562 9.97292L17.6958 4.33334H24.3041L29.9437 9.97292C30.1368 10.1668 30.3664 10.3205 30.6192 10.4252C30.872 10.53 31.143 10.5837 31.4166 10.5833H37.6666L37.6708 33.5H4.33329Z" fill="white"/>
</svg>
