<svg width="57" height="57" viewBox="0 0 57 57" fill="none" xmlns="http://www.w3.org/2000/svg">
<path d="M28.5 56.9375C22.8756 56.9375 17.3775 55.2697 12.701 52.1449C8.02446 49.0202 4.37956 44.5788 2.22719 39.3826C0.0748215 34.1863 -0.488336 28.4685 0.608931 22.9521C1.7062 17.4358 4.41461 12.3687 8.39166 8.39166C12.3687 4.41461 17.4358 1.7062 22.9521 0.608931C28.4685 -0.488336 34.1863 0.0748215 39.3826 2.22719C44.5788 4.37956 49.0202 8.02446 52.1449 12.701C55.2697 17.3775 56.9375 22.8756 56.9375 28.5C56.9289 36.0395 53.9301 43.2677 48.5989 48.5989C43.2677 53.9301 36.0395 56.9289 28.5 56.9375V56.9375ZM28.5 4.12501C23.6791 4.12501 18.9664 5.55458 14.958 8.23294C10.9495 10.9113 7.82534 14.7182 5.98045 19.1721C4.13556 23.6261 3.65286 28.5271 4.59337 33.2553C5.53389 37.9836 7.85538 42.3268 11.2643 45.7357C14.6732 49.1446 19.0164 51.4661 23.7447 52.4067C28.473 53.3472 33.374 52.8645 37.8279 51.0196C42.2819 49.1747 46.0887 46.0505 48.7671 42.042C51.4454 38.0336 52.875 33.3209 52.875 28.5C52.8675 22.0377 50.297 15.8422 45.7274 11.2726C41.1579 6.70303 34.9624 4.13254 28.5 4.12501V4.12501Z" fill="white"/>
</svg>
