<svg width="57" height="60" viewBox="0 0 57 60" fill="none" xmlns="http://www.w3.org/2000/svg">
<path d="M55.6256 24.479L30.4142 1.28451C29.5946 0.530477 28.5153 0.122404 27.4019 0.14559C26.2884 0.168776 25.227 0.621426 24.4395 1.40893L1.25243 24.5962L0.0625 25.786V59.9687H22.4062V38.6406H34.5938V59.9687H56.9375V25.686L55.6256 24.479ZM27.4892 4.20723C27.525 4.20723 27.5029 4.21497 27.4875 4.23008C27.4717 4.21497 27.4534 4.20723 27.4892 4.20723ZM52.875 55.9062H38.6562V38.6406C38.6562 37.5632 38.2282 36.5298 37.4664 35.768C36.7045 35.0061 35.6712 34.5781 34.5938 34.5781H22.4062C21.3288 34.5781 20.2955 35.0061 19.5336 35.768C18.7718 36.5298 18.3438 37.5632 18.3438 38.6406V55.9062H4.125V27.4687L27.4892 4.28149C27.4908 4.27997 27.491 4.27857 27.4922 4.27705L52.875 27.4687V55.9062Z" fill="white"/>
</svg>
