<svg width="60" height="54" viewBox="0 0 60 54" fill="none" xmlns="http://www.w3.org/2000/svg">
<path d="M9.375 51.0625C9.375 50.4823 9.57254 49.9259 9.92418 49.5157C10.2758 49.1055 10.7527 48.875 11.25 48.875H48.75C49.2473 48.875 49.7242 49.1055 50.0758 49.5157C50.4275 49.9259 50.625 50.4823 50.625 51.0625C50.625 51.6427 50.4275 52.1991 50.0758 52.6093C49.7242 53.0195 49.2473 53.25 48.75 53.25H11.25C10.7527 53.25 10.2758 53.0195 9.92418 52.6093C9.57254 52.1991 9.375 51.6427 9.375 51.0625ZM52.4663 5.125L52.5563 5.12937C53.2569 5.18503 53.9419 5.39743 54.5738 5.755C55.0288 6.00209 55.4196 6.38554 55.7062 6.86625C55.9575 7.30375 56.25 8.07813 56.25 9.5V35.7106L56.2462 35.8156C56.1982 36.633 56.0161 37.432 55.71 38.1694C55.4981 38.7002 55.1694 39.156 54.7575 39.4906C54.3825 39.7837 53.7187 40.125 52.5 40.125H7.53375L7.44375 40.1206C6.74314 40.0645 6.05826 39.8522 5.42625 39.495C4.97128 39.2477 4.58053 38.8643 4.29375 38.3838C4.0425 37.9463 3.75 37.1719 3.75 35.75V9.53937L3.75375 9.43437C3.80145 8.61693 3.98351 7.81782 4.29 7.08063C4.50195 6.54982 4.83058 6.09396 5.2425 5.75937C5.6175 5.46625 6.28125 5.125 7.5 5.125H52.4663ZM52.5 0.75H7.5C0 0.75 0 9.5 0 9.5V35.75C0 44.5 7.5 44.5 7.5 44.5H52.5C60 44.5 60 35.75 60 35.75V9.5C60 0.75 52.5 0.75 52.5 0.75Z" fill="white"/>
</svg>
