<svg width="42" height="38" viewBox="0 0 42 38" fill="none" xmlns="http://www.w3.org/2000/svg">
<path d="M0.166718 11.5C0.166461 10.0049 0.464208 8.52482 1.04256 7.14615C1.62091 5.76748 2.46825 4.51791 3.53508 3.47048C4.6019 2.42305 5.86681 1.59877 7.25586 1.04582C8.64491 0.492862 10.1302 0.22232 11.6251 0.250007C13.3937 0.240614 15.1442 0.607235 16.7604 1.32557C18.3767 2.04391 19.8218 3.09755 21.0001 4.41667C22.1783 3.09755 23.6234 2.04391 25.2397 1.32557C26.8559 0.607235 28.6064 0.240614 30.3751 0.250007C31.8699 0.22232 33.3552 0.492862 34.7442 1.04582C36.1333 1.59877 37.3982 2.42305 38.465 3.47048C39.5319 4.51791 40.3792 5.76748 40.9575 7.14615C41.5359 8.52482 41.8336 10.0049 41.8334 11.5C41.8334 22.6583 28.5438 31.0833 21.0001 37.75C13.473 31.0271 0.166718 22.6667 0.166718 11.5Z" fill="#F5F5F5"/>
</svg>
