<svg width="31" height="27" viewBox="0 0 31 27" fill="none" xmlns="http://www.w3.org/2000/svg">
<path d="M29.5479 5.69339C29.0897 4.63258 28.4291 3.67128 27.603 2.86331C26.7763 2.05293 25.8016 1.40893 24.7319 0.966333C23.6227 0.505567 22.433 0.26972 21.2319 0.272485C19.5469 0.272485 17.9028 0.733911 16.4741 1.60549C16.1323 1.81399 15.8076 2.04299 15.5 2.29251C15.1924 2.04299 14.8677 1.81399 14.5259 1.60549C13.0972 0.733911 11.4531 0.272485 9.76807 0.272485C8.55469 0.272485 7.37891 0.504907 6.26807 0.966333C5.19482 1.41067 4.22754 2.04983 3.39697 2.86331C2.56981 3.67037 1.90906 4.63189 1.45215 5.69339C0.977051 6.79739 0.734375 7.96976 0.734375 9.1763C0.734375 10.3145 0.966797 11.5005 1.42822 12.7071C1.81445 13.7154 2.36816 14.7613 3.07568 15.8174C4.19678 17.4888 5.73828 19.232 7.65235 20.9991C10.8242 23.9283 13.9653 25.9517 14.0986 26.0337L14.9087 26.5533C15.2676 26.7823 15.729 26.7823 16.0879 26.5533L16.898 26.0337C17.0313 25.9483 20.1689 23.9283 23.3442 20.9991C25.2583 19.232 26.7998 17.4888 27.9209 15.8174C28.6284 14.7613 29.1856 13.7154 29.5684 12.7071C30.0298 11.5005 30.2622 10.3145 30.2622 9.1763C30.2656 7.96976 30.023 6.79739 29.5479 5.69339V5.69339ZM15.5 23.8497C15.5 23.8497 3.33203 16.0533 3.33203 9.1763C3.33203 5.69339 6.21338 2.87014 9.76807 2.87014C12.2666 2.87014 14.4336 4.26468 15.5 6.30179C16.5664 4.26468 18.7334 2.87014 21.2319 2.87014C24.7866 2.87014 27.668 5.69339 27.668 9.1763C27.668 16.0533 15.5 23.8497 15.5 23.8497Z" fill="white"/>
</svg>
