<svg width="43" height="54" viewBox="0 0 43 54" fill="none" xmlns="http://www.w3.org/2000/svg">
<path d="M41.2437 40.8271L37.75 37.3333V23.7916C37.75 15.4771 33.3083 8.51665 25.5625 6.67498V4.83331C25.5625 2.5854 23.7479 0.770813 21.5 0.770813C19.2521 0.770813 17.4375 2.5854 17.4375 4.83331V6.67498C9.66457 8.51665 5.24999 15.45 5.24999 23.7916V37.3333L1.75624 40.8271C0.0499867 42.5333 1.24165 45.4583 3.65207 45.4583H39.3208C41.7583 45.4583 42.95 42.5333 41.2437 40.8271ZM32.3333 40.0416H10.6667V23.7916C10.6667 17.075 14.7562 11.6041 21.5 11.6041C28.2437 11.6041 32.3333 17.075 32.3333 23.7916V40.0416ZM21.5 53.5833C24.4792 53.5833 26.9167 51.1458 26.9167 48.1666H16.0833C16.0833 49.6032 16.654 50.981 17.6698 51.9968C18.6856 53.0126 20.0634 53.5833 21.5 53.5833Z" fill="white"/>
</svg>
