<svg width="42" height="42" viewBox="0 0 42 42" fill="none" xmlns="http://www.w3.org/2000/svg">
<path d="M22.9584 41.8333H19.0209C18.0926 41.8333 17.2024 41.4646 16.546 40.8082C15.8896 40.1518 15.5209 39.2616 15.5209 38.3333V36.0625C15.5096 35.9287 15.4605 35.8009 15.3793 35.6939C15.2982 35.587 15.1883 35.5053 15.0625 35.4583C14.935 35.3767 14.7868 35.3333 14.6354 35.3333C14.484 35.3333 14.3358 35.3767 14.2084 35.4583L12.6667 37.125C12.3433 37.4507 11.9587 37.7091 11.535 37.8855C11.1113 38.0619 10.6569 38.1527 10.1979 38.1527C9.73899 38.1527 9.28459 38.0619 8.86089 37.8855C8.43719 37.7091 8.05257 37.4507 7.72919 37.125L4.87502 34.3333C4.54464 34.0106 4.28226 33.6249 4.10335 33.1992C3.92445 32.7734 3.83264 32.316 3.83335 31.8542C3.83469 30.9094 4.20907 30.0034 4.87502 29.3333L6.41669 27.7917C6.49112 27.6769 6.53072 27.543 6.53072 27.4063C6.53072 27.2695 6.49112 27.1356 6.41669 27.0208C6.29169 26.7083 6.08335 26.4792 5.79169 26.4792H3.66669C2.73652 26.4737 1.84632 26.1003 1.19054 25.4406C0.534754 24.7809 0.166671 23.8885 0.166687 22.9583V19.0208C0.166687 18.0926 0.535436 17.2023 1.19181 16.546C1.84819 15.8896 2.73843 15.5208 3.66669 15.5208H5.93752C6.07131 15.5096 6.19914 15.4605 6.30611 15.3793C6.41307 15.2982 6.49477 15.1883 6.54169 15.0625C6.62336 14.935 6.66677 14.7868 6.66677 14.6354C6.66677 14.484 6.62336 14.3358 6.54169 14.2083L4.87502 12.6667C4.54936 12.3433 4.29091 11.9587 4.11453 11.535C3.93816 11.1113 3.84736 10.6569 3.84736 10.1979C3.84736 9.73898 3.93816 9.28457 4.11453 8.86087C4.29091 8.43717 4.54936 8.05255 4.87502 7.72917L7.66669 4.87501C7.98627 4.54619 8.3684 4.28464 8.79059 4.10575C9.21278 3.92685 9.66649 3.83423 10.125 3.83334C10.5964 3.83127 11.0635 3.92221 11.4996 4.10096C11.9358 4.27971 12.3324 4.54275 12.6667 4.87501L14.2084 6.41667C14.3231 6.4911 14.457 6.53071 14.5938 6.53071C14.7306 6.53071 14.8644 6.4911 14.9792 6.41667C15.2917 6.29167 15.5209 6.08334 15.5209 5.79167V3.66667C15.5264 2.7365 15.8997 1.84631 16.5594 1.19052C17.2191 0.534738 18.1115 0.166655 19.0417 0.166672H23.0834C24.0116 0.166672 24.9019 0.535421 25.5582 1.1918C26.2146 1.84818 26.5834 2.73841 26.5834 3.66667V5.93751C26.5946 6.0713 26.6437 6.19912 26.7249 6.30609C26.806 6.41306 26.9159 6.49476 27.0417 6.54167C27.1692 6.62334 27.3174 6.66675 27.4688 6.66675C27.6202 6.66675 27.7684 6.62334 27.8959 6.54167L29.3334 4.87501C29.6567 4.54935 30.0414 4.29089 30.4651 4.11452C30.8888 3.93814 31.3432 3.84734 31.8021 3.84734C32.261 3.84734 32.7155 3.93814 33.1392 4.11452C33.5629 4.29089 33.9475 4.54935 34.2709 4.87501L37.125 7.66667C37.4545 7.99013 37.7162 8.37591 37.8951 8.80155C38.0739 9.22718 38.1662 9.68416 38.1667 10.1458C38.1767 10.6152 38.0894 11.0816 37.9101 11.5154C37.7308 11.9493 37.4635 12.3413 37.125 12.6667L35.5834 14.2083C35.5089 14.3231 35.4693 14.457 35.4693 14.5938C35.4693 14.7305 35.5089 14.8644 35.5834 14.9792C35.7084 15.2917 35.9167 15.5208 36.2084 15.5208H38.4792C39.3838 15.5637 40.2371 15.9535 40.8617 16.6092C41.4864 17.2649 41.8344 18.1361 41.8334 19.0417V23.0833C41.8334 24.0116 41.4646 24.9018 40.8082 25.5582C40.1519 26.2146 39.2616 26.5833 38.3334 26.5833H36.0625C35.9287 26.5946 35.8009 26.6437 35.6939 26.7248C35.587 26.806 35.5053 26.9159 35.4584 27.0417C35.3839 27.1564 35.3443 27.2903 35.3443 27.4271C35.3443 27.5639 35.3839 27.6977 35.4584 27.8125L37.0625 29.4167C37.3882 29.7401 37.6466 30.1247 37.823 30.5484C37.9994 30.9721 38.0902 31.4265 38.0902 31.8854C38.0902 32.3444 37.9994 32.7988 37.823 33.2225C37.6466 33.6462 37.3882 34.0308 37.0625 34.3542L34.3334 37.125C34.0138 37.4538 33.6316 37.7154 33.2095 37.8943C32.7873 38.0732 32.3335 38.1658 31.875 38.1667C30.9447 38.1545 30.0557 37.7809 29.3959 37.125L27.7917 35.5833C27.6769 35.5089 27.5431 35.4693 27.4063 35.4693C27.2695 35.4693 27.1356 35.5089 27.0209 35.5833C26.7084 35.7083 26.4792 35.9167 26.4792 36.2083V38.4792C26.4363 39.3838 26.0465 40.2371 25.3908 40.8617C24.7351 41.4864 23.864 41.8344 22.9584 41.8333V41.8333ZM19.6875 37.6667H22.3125V36.0625C22.3214 35.1018 22.6152 34.1653 23.1566 33.3717C23.6981 32.578 24.4629 31.9629 25.3542 31.6042C26.2491 31.213 27.2403 31.0972 28.2013 31.2716C29.1623 31.446 30.0496 31.9026 30.75 32.5833L31.875 33.7083L33.7084 31.875L32.5834 30.7292C31.907 30.0393 31.4508 29.1641 31.2727 28.2145C31.0947 27.2649 31.2028 26.2839 31.5834 25.3958C31.9453 24.5084 32.5618 23.748 33.3552 23.2105C34.1486 22.6729 35.0834 22.3822 36.0417 22.375H37.6667V19.6875H36.0625C35.1018 19.6786 34.1653 19.3849 33.3717 18.8434C32.578 18.3019 31.9629 17.5371 31.6042 16.6458C31.213 15.7509 31.0972 14.7597 31.2716 13.7987C31.446 12.8377 31.9027 11.9504 32.5834 11.25L33.7084 10.125L31.875 8.29167L30.7292 9.41667C30.0286 10.0566 29.1598 10.483 28.225 10.6457C27.2902 10.8085 26.3284 10.7007 25.4528 10.3351C24.5772 9.96957 23.8243 9.36143 23.2827 8.58233C22.7411 7.80323 22.4334 6.88561 22.3959 5.93751V4.33334H19.6875V5.93751C19.6786 6.89823 19.3849 7.83471 18.8434 8.62836C18.302 9.42202 17.5371 10.0371 16.6459 10.3958C15.7509 10.787 14.7597 10.9028 13.7987 10.7284C12.8377 10.554 11.9504 10.0974 11.25 9.41667L10.125 8.29167L8.29169 10.125L9.41669 11.2708C10.0566 11.9714 10.483 12.8402 10.6458 13.775C10.8085 14.7098 10.7007 15.6716 10.3351 16.5472C9.96958 17.4228 9.36145 18.1758 8.58235 18.7173C7.80325 19.2589 6.88562 19.5666 5.93752 19.6042H4.33335V22.2292H5.93752C6.89824 22.238 7.83473 22.5318 8.62838 23.0733C9.42203 23.6147 10.0372 24.3795 10.3959 25.2708C10.787 26.1658 10.9028 27.1569 10.7284 28.118C10.554 29.079 10.0974 29.9662 9.41669 30.6667L8.29169 31.7917L10.125 33.625L11.2709 32.5C11.9714 31.8601 12.8403 31.4337 13.775 31.2709C14.7098 31.1082 15.6717 31.216 16.5473 31.5816C17.4228 31.9471 18.1758 32.5552 18.7173 33.3344C19.2589 34.1135 19.5666 35.0311 19.6042 35.9792L19.6875 37.6667Z" fill="white"/>
</svg>
